<svg width="27" height="29" viewBox="0 0 27 29" fill="none" xmlns="http://www.w3.org/2000/svg">
<path fill-rule="evenodd" clip-rule="evenodd" d="M10 23C15.5228 23 20 18.5228 20 13C20 7.47715 15.5228 3 10 3C4.47715 3 0 7.47715 0 13C0 18.5228 4.47715 23 10 23ZM10 21C14.4183 21 18 17.4183 18 13C18 8.58172 14.4183 5 10 5C5.58172 5 2 8.58172 2 13C2 17.4183 5.58172 21 10 21Z" fill="#FFED00"/>
<circle cx="9.5" cy="1.5" r="1.5" fill="#E25C28"/>
<rect x="17.0605" y="18.3535" width="5.91358" height="1" rx="0.5" transform="rotate(45 17.0605 18.3535)" fill="#FFED00"/>
<rect x="19.2168" y="19.8027" width="10.1376" height="2" rx="1" transform="rotate(45 19.2168 19.8027)" fill="#FFED00"/>
</svg>
