<svg width="27" height="29" viewBox="0 0 27 29" fill="none" xmlns="http://www.w3.org/2000/svg">
<path fill-rule="evenodd" clip-rule="evenodd" d="M10.001 23C15.5238 23 20.001 18.5228 20.001 13C20.001 7.47715 15.5238 3 10.001 3C4.47813 3 0.000976562 7.47715 0.000976562 13C0.000976562 18.5228 4.47813 23 10.001 23ZM10.001 21C14.4193 21 18.001 17.4183 18.001 13C18.001 8.58172 14.4193 5 10.001 5C5.5827 5 2.00098 8.58172 2.00098 13C2.00098 17.4183 5.5827 21 10.001 21Z" fill="#7B7B7B"/>
<circle cx="9.50098" cy="1.5" r="1.5" fill="#7B7B7B"/>
<rect x="17.0615" y="18.3535" width="5.91358" height="1" rx="0.5" transform="rotate(45 17.0615 18.3535)" fill="#7B7B7B"/>
<rect x="19.2178" y="19.8027" width="10.1376" height="2" rx="1" transform="rotate(45 19.2178 19.8027)" fill="#7B7B7B"/>
</svg>
